<svg width="16" height="16" viewBox="0 0 16 16" fill="none" xmlns="http://www.w3.org/2000/svg">
<path d="M14.3526 7.24667L13.3393 6.23334C13.1659 6.06 13.0259 5.72 13.0259 5.48V4.04C13.0259 3.45334 12.5459 2.97334 11.9593 2.97334H10.5259C10.2859 2.97334 9.94594 2.83334 9.7726 2.66L8.75927 1.64667C8.34594 1.23334 7.66594 1.23334 7.2526 1.64667L6.22594 2.66C6.05927 2.83334 5.71927 2.97334 5.4726 2.97334H4.03927C3.4526 2.97334 2.9726 3.45334 2.9726 4.04V5.47334C2.9726 5.71334 2.8326 6.05334 2.65927 6.22667L1.64594 7.24C1.2326 7.65334 1.2326 8.33334 1.64594 8.74667L2.65927 9.76C2.8326 9.93334 2.9726 10.2733 2.9726 10.5133V11.9467C2.9726 12.5333 3.4526 13.0133 4.03927 13.0133H5.4726C5.7126 13.0133 6.0526 13.1533 6.22594 13.3267L7.23927 14.34C7.6526 14.7533 8.3326 14.7533 8.74594 14.34L9.75927 13.3267C9.9326 13.1533 10.2726 13.0133 10.5126 13.0133H11.9459C12.5326 13.0133 13.0126 12.5333 13.0126 11.9467V10.5133C13.0126 10.2733 13.1526 9.93334 13.3259 9.76L14.3393 8.74667C14.7726 8.34 14.7726 7.66 14.3526 7.24667ZM5.3326 6C5.3326 5.63334 5.6326 5.33334 5.99927 5.33334C6.36594 5.33334 6.66594 5.63334 6.66594 6C6.66594 6.36667 6.3726 6.66667 5.99927 6.66667C5.6326 6.66667 5.3326 6.36667 5.3326 6ZM6.3526 10.3533C6.2526 10.4533 6.12594 10.5 5.99927 10.5C5.8726 10.5 5.74594 10.4533 5.64594 10.3533C5.4526 10.16 5.4526 9.84 5.64594 9.64667L9.64594 5.64667C9.83927 5.45334 10.1593 5.45334 10.3526 5.64667C10.5459 5.84 10.5459 6.16 10.3526 6.35334L6.3526 10.3533ZM9.99927 10.6667C9.62594 10.6667 9.32594 10.3667 9.32594 10C9.32594 9.63334 9.62594 9.33334 9.9926 9.33334C10.3593 9.33334 10.6593 9.63334 10.6593 10C10.6593 10.3667 10.3659 10.6667 9.99927 10.6667Z" fill="#F04438"/>
</svg>
