<svg width="16" height="16" viewBox="0 0 16 16" fill="none" xmlns="http://www.w3.org/2000/svg">
<path d="M14.3726 7.15997L13.4726 6.10664C13.3059 5.90664 13.1659 5.5333 13.1659 5.26664V4.1333C13.1659 3.42664 12.5859 2.84664 11.8793 2.84664H10.7459C10.4793 2.84664 10.0993 2.70664 9.89927 2.53997L8.84594 1.63997C8.38594 1.24664 7.6326 1.24664 7.1726 1.63997L6.10594 2.53997C5.90594 2.70664 5.5326 2.84664 5.26594 2.84664H4.1126C3.40594 2.84664 2.82594 3.42664 2.82594 4.1333V5.26664C2.82594 5.52664 2.6926 5.89997 2.52594 6.09997L1.62594 7.15997C1.23927 7.62664 1.23927 8.3733 1.62594 8.82664L2.52594 9.88664C2.6926 10.08 2.82594 10.46 2.82594 10.72V11.86C2.82594 12.5666 3.40594 13.1466 4.1126 13.1466H5.2726C5.5326 13.1466 5.9126 13.2866 6.1126 13.4533L7.16594 14.3533C7.62594 14.7466 8.37927 14.7466 8.83927 14.3533L9.8926 13.4533C10.0926 13.2866 10.4659 13.1466 10.7326 13.1466H11.8659C12.5726 13.1466 13.1526 12.5666 13.1526 11.86V10.7266C13.1526 10.46 13.2926 10.0866 13.4593 9.88664L14.3593 8.8333C14.7659 8.37997 14.7659 7.62664 14.3726 7.15997ZM7.49927 5.41997C7.49927 5.14664 7.72594 4.91997 7.99927 4.91997C8.2726 4.91997 8.49927 5.14664 8.49927 5.41997V8.63997C8.49927 8.9133 8.2726 9.13997 7.99927 9.13997C7.72594 9.13997 7.49927 8.9133 7.49927 8.63997V5.41997ZM7.99927 11.2466C7.6326 11.2466 7.3326 10.9466 7.3326 10.58C7.3326 10.2133 7.62594 9.9133 7.99927 9.9133C8.36594 9.9133 8.66594 10.2133 8.66594 10.58C8.66594 10.9466 8.3726 11.2466 7.99927 11.2466Z" fill="#F2F7FF"/>
</svg>
