<svg width="460" height="403" viewBox="0 0 460 403" fill="none" xmlns="http://www.w3.org/2000/svg">
<path d="M119.131 30.458V47.2058" stroke="#005FF0" stroke-linecap="round" stroke-linejoin="round"/>
<path d="M110.717 38.8315H127.504" stroke="#005FF0" stroke-linecap="round" stroke-linejoin="round"/>
<path d="M309.78 136.086C277.18 136.086 243.996 134.762 212.954 126.115C182.497 117.663 154.532 101.266 129.605 82.2983C113.285 69.9516 98.4459 60.0976 77.258 61.5777C56.5298 62.6993 36.7079 70.4397 20.7048 83.6614C-6.2475 107.264 -2.19687 151.003 8.59185 181.617C24.7944 227.849 74.1031 260.059 116.012 280.896C164.425 305.083 217.628 319.144 270.949 327.206C317.687 334.334 377.745 339.475 418.252 308.978C455.447 280.896 465.652 216.865 456.538 173.632C454.327 160.861 447.526 149.337 437.414 141.227C411.28 122.104 372.292 134.879 342.925 135.502C332.02 135.736 320.919 136.008 309.78 136.086Z" fill="#F2F7FF"/>
<path d="M58.7148 304.85V321.597" stroke="#005FF0" stroke-linecap="round" stroke-linejoin="round"/>
<path d="M50.3457 313.223H67.0935" stroke="#005FF0" stroke-linecap="round" stroke-linejoin="round"/>
<path d="M231.575 403C310.541 403 374.555 399.007 374.555 394.081C374.555 389.155 310.541 385.162 231.575 385.162C152.61 385.162 88.5957 389.155 88.5957 394.081C88.5957 399.007 152.61 403 231.575 403Z" fill="#F2F7FF"/>
<path d="M346.507 298.54H99.5347C97.8819 298.539 96.2491 298.179 94.7492 297.484C93.2492 296.79 91.918 295.778 90.8476 294.519C89.7771 293.26 88.993 291.783 88.5495 290.191C88.1059 288.599 88.0135 286.929 88.2786 285.298L119.866 93.7492C120.293 91.0833 121.657 88.6573 123.713 86.9079C125.77 85.1586 128.383 84.2007 131.083 84.2068H378.055C379.707 84.207 381.338 84.5669 382.837 85.2615C384.335 85.956 385.664 86.9687 386.732 88.2289C387.8 89.4892 388.58 90.9668 389.018 92.5591C389.457 94.1514 389.544 95.8201 389.272 97.4493L357.841 288.998C357.403 291.68 356.02 294.117 353.941 295.868C351.862 297.618 349.224 298.566 346.507 298.54Z" fill="#E3EDFC"/>
<path d="M349.554 79.1972L202.957 13.7439C198.636 11.8145 193.569 13.7535 191.639 18.0747L145.177 122.137C143.248 126.458 145.187 131.525 149.508 133.454L296.105 198.907C300.427 200.837 305.494 198.898 307.423 194.577L353.885 90.5147C355.814 86.1935 353.875 81.1265 349.554 79.1972Z" fill="white" stroke="#005FF0" stroke-linecap="round" stroke-linejoin="round"/>
<path d="M224.441 99.3577C228.3 93.9433 233.912 90.0295 240.326 88.2795C246.741 86.5295 253.563 87.0509 259.637 89.7555C265.71 92.4601 270.662 97.1814 273.653 103.119C276.644 109.057 277.49 115.847 276.048 122.337" stroke="#005FF0" stroke-width="0.68" stroke-linecap="round" stroke-linejoin="round"/>
<path d="M294.555 85.9526C296.494 85.9527 298.066 87.5249 298.066 89.4644C298.066 91.4038 296.494 92.9761 294.555 92.9761C292.615 92.9761 291.043 91.4038 291.043 89.4644C291.043 87.5249 292.615 85.9526 294.555 85.9526Z" stroke="#005FF0"/>
<path d="M236.443 60.0132C238.383 60.0132 239.955 61.5855 239.955 63.5249C239.955 65.4643 238.383 67.0366 236.443 67.0366C234.504 67.0366 232.932 65.4643 232.932 63.5249C232.932 61.5854 234.504 60.0132 236.443 60.0132Z" stroke="#005FF0"/>
<path d="M345.421 298.462H97.2414C94.2216 298.452 91.3289 297.245 89.1972 295.106C87.0655 292.967 85.8685 290.07 85.8685 287.05V112.055C85.8322 110.537 86.0993 109.026 86.6541 107.613C87.2089 106.199 88.0402 104.911 89.0994 103.822C90.1586 102.734 91.4243 101.868 92.8224 101.275C94.2205 100.683 95.7229 100.375 97.2414 100.37H187.641C189.738 100.378 191.793 100.964 193.58 102.063C195.366 103.162 196.815 104.733 197.767 106.602L210.659 131.84C211.608 133.712 213.056 135.285 214.843 136.385C216.631 137.485 218.687 138.069 220.786 138.072H345.421C348.437 138.072 351.33 139.27 353.463 141.403C355.596 143.536 356.794 146.429 356.794 149.445V287.05C356.794 290.07 355.597 292.967 353.465 295.106C351.333 297.245 348.441 298.452 345.421 298.462Z" fill="white" stroke="#005FF0" stroke-linecap="round" stroke-linejoin="round"/>
<path d="M307.213 144.032C292.876 144.024 278.858 148.268 266.933 156.228C255.008 164.188 245.712 175.506 240.22 188.749C234.728 201.993 233.287 216.568 236.079 230.631C238.872 244.694 245.772 257.613 255.907 267.754C266.043 277.895 278.958 284.802 293.019 287.602C307.081 290.402 321.657 288.969 334.904 283.484C348.15 277.999 359.473 268.709 367.439 256.788C375.405 244.867 379.658 230.852 379.658 216.515C379.658 197.298 372.026 178.867 358.442 165.275C344.857 151.683 326.43 144.042 307.213 144.032Z" fill="white" stroke="#005FF0" stroke-linecap="round" stroke-linejoin="round"/>
<path d="M358.775 269.095L378.094 288.414" stroke="#005FF0" stroke-linecap="round" stroke-linejoin="round"/>
<path d="M375.91 279.028L369.908 285.306C367.218 288.12 367.319 292.583 370.133 295.273L422.217 345.063C425.032 347.754 429.494 347.653 432.185 344.839L438.186 338.561C440.877 335.746 440.776 331.284 437.962 328.593L385.877 278.803C383.063 276.113 378.601 276.213 375.91 279.028Z" fill="#E3EDFC"/>
<path d="M414.479 3.81665V20.6034" stroke="#005FF0" stroke-linecap="round" stroke-linejoin="round"/>
<path d="M406.064 12.2305H422.851" stroke="#005FF0" stroke-linecap="round" stroke-linejoin="round"/>
</svg>
